<svg width="486" height="271" viewBox="0 0 486 271" fill="none" xmlns="http://www.w3.org/2000/svg">
<path d="M23.1364 84.8387C23.1364 84.8387 51.6532 50.1787 138.443 51.7248C225.233 53.2717 328.693 108.683 386.472 99.0227C470.591 84.9595 496.572 132.522 481.361 185.966C467.511 234.627 347.579 242.23 278.207 218.598C208.834 194.966 124.225 198.134 90.4762 211.444C56.7264 224.754 22.502 206.249 8.55884 181.594C-5.38356 156.939 -3.48208 107.838 23.1364 84.8387Z" fill="#EFE5FF"/>
<path d="M431.246 105.388L445.438 139.019L430.964 145.661C430.964 145.661 411.372 118.887 410.765 115.231C410.158 111.573 414.402 106.98 414.402 106.98L431.246 105.388Z" fill="#D55B5D"/>
<path d="M429.804 135.694L448.654 92.3917L460.771 94.9938C460.771 94.9938 451.968 136.042 449.431 141.907C444.542 153.207 424.749 150.258 429.804 135.694Z" fill="#E38680"/>
<path d="M444.491 75.9493C446.087 76.7738 448.545 78.7992 450.536 80.5526L455.183 74.7063L455.179 74.7024C455.422 74.3736 455.951 73.7104 456.645 72.8672L456.647 72.8656C458.973 70.0415 463.173 65.1802 464.865 63.9396C467.061 62.328 467.697 64.4757 466.68 65.686C465.896 66.6196 461.56 73.1314 459.619 76.0592L459.726 76.1738C461.814 73.5881 466.733 67.8142 468.597 66.4458C470.793 64.8342 471.43 66.9819 470.413 68.1922C469.535 69.238 464.205 77.2741 462.769 79.4445L462.85 79.5318C465.126 76.7536 469.529 71.6367 471.27 70.3594C473.466 68.7478 474.103 70.8956 473.086 72.1058C472.414 72.9046 469.143 77.7885 466.996 81.0163C469.234 78.793 471.892 76.2875 473.117 75.5316C475.242 74.2201 475.666 76.2299 474.647 77.2609C473.95 77.9669 470.37 82.4868 468.184 85.265L461.217 94.7195L459.152 100.887L447.083 96.8446L448.655 92.3917L447.242 85.2261C445.97 83.0682 444.197 80.1451 443.256 78.9636C441.684 76.9889 441.426 74.3658 444.491 75.9493Z" fill="#E38680"/>
<path d="M465.259 84.1389C465.207 84.121 465.159 84.0906 465.12 84.0477L457.096 75.3679C456.966 75.2284 456.975 75.0102 457.115 74.8809C457.255 74.7515 457.473 74.7593 457.602 74.9003L465.627 83.5802C465.756 83.7196 465.748 83.9379 465.607 84.0672C465.51 84.1568 465.375 84.1802 465.259 84.1389Z" fill="#D55B5D"/>
<path d="M453.782 86.9865C453.639 86.9366 453.541 86.7948 453.552 86.635C453.767 83.7555 451.622 81.554 451.6 81.5322C451.466 81.3966 451.467 81.1792 451.603 81.0452C451.737 80.9111 451.956 80.9111 452.09 81.0467C452.187 81.1449 454.479 83.4867 454.24 86.6865C454.226 86.8766 454.061 87.0185 453.871 87.0044C453.84 87.0029 453.809 86.9959 453.782 86.9865Z" fill="#D55B5D"/>
<path d="M339.19 90.6095L342.471 157.756L339.19 186.191H414.804L412.458 160.226L414.804 97.1158L339.19 90.6095Z" fill="#DD504F"/>
<path d="M403.353 88.6581C391.813 84.5613 383.859 77.9685 376.373 74.7928C368.595 77.1658 359.994 82.889 348.089 85.7529C329.198 90.2962 325.854 65.2051 339.586 57.2407C351.673 50.2309 350.35 48.8835 354.093 35.9675C354.335 35.1297 354.6 34.2421 354.892 33.3007C355.209 32.2682 355.56 31.1732 355.949 30.0066C356.178 29.3247 356.412 28.6686 356.656 28.0366C360.367 18.3928 369.837 12.6774 379.594 13.5323C389.388 13.7061 398.207 20.3831 400.886 30.362C401.062 31.0158 401.226 31.6938 401.382 32.3952C401.647 33.5968 401.881 34.7222 402.088 35.782C402.28 36.7491 402.45 37.6593 402.603 38.5173C404.972 51.7545 403.514 52.9562 414.8 61.1949C427.62 70.555 421.664 95.1574 403.353 88.6581Z" fill="#4F1E4A"/>
<path d="M423.083 102.643L331.232 97.8141C331.232 97.8141 332.772 92.0364 334.839 86.2594C336.905 80.4825 340.666 78.2171 345.43 77.2578C346.774 76.9858 349.239 76.4099 352.085 75.7226C353.697 75.3321 355.432 74.9066 357.156 74.4804C363.169 72.9942 369.035 71.5003 369.035 71.5003L378.628 71.2393H378.684L378.737 71.2455L387.32 72.3879C387.32 72.3879 392.419 74.2162 397.995 76.1862C403.225 78.034 408.875 80.0079 411.119 80.7124C415.757 82.1658 419.259 84.813 420.709 90.7747C422.156 96.7363 423.083 102.643 423.083 102.643Z" fill="#DD504F"/>
<path d="M341.972 85.9087C341.87 85.9033 341.768 85.8651 341.686 85.7926L339.353 83.7578C339.156 83.5856 339.136 83.2864 339.307 83.0892C339.479 82.892 339.779 82.8718 339.976 83.0432L342.308 85.078C342.505 85.2502 342.526 85.5495 342.354 85.7466C342.255 85.8612 342.112 85.9157 341.972 85.9087Z" fill="#A7255B"/>
<path d="M341.431 96.1939C341.329 96.1884 341.228 96.1502 341.145 96.0777L338.812 94.043C338.615 93.8708 338.595 93.5715 338.767 93.3744C338.939 93.1772 339.238 93.1569 339.435 93.3284L341.768 95.3631C341.965 95.5354 341.985 95.8346 341.813 96.0318C341.714 96.1463 341.571 96.2009 341.431 96.1939Z" fill="#A7255B"/>
<path d="M356.386 82.8842C356.301 82.8796 356.216 82.8523 356.142 82.8009C355.927 82.652 355.873 82.3567 356.022 82.1416L357.783 79.5964C357.932 79.3813 358.227 79.3275 358.442 79.4764C358.657 79.6252 358.711 79.9206 358.562 80.1357L356.801 82.6809C356.704 82.8211 356.545 82.8928 356.386 82.8842Z" fill="#A7255B"/>
<path d="M348.052 92.7252C347.967 92.7205 347.883 92.6933 347.808 92.6418C347.593 92.493 347.539 92.1976 347.688 91.9825L349.449 89.4373C349.598 89.2223 349.893 89.1685 350.108 89.3173C350.324 89.4662 350.377 89.7615 350.228 89.9766L348.467 92.5218C348.369 92.6621 348.21 92.733 348.052 92.7252Z" fill="#A7255B"/>
<path d="M352.196 80.0008C352.221 80.0819 352.225 80.1707 352.202 80.2588C352.138 80.512 351.879 80.6648 351.626 80.6001L348.628 79.8294C348.374 79.7639 348.222 79.506 348.286 79.2527C348.352 78.9994 348.61 78.8467 348.863 78.9121L351.861 79.6829C352.027 79.7242 352.149 79.8488 352.196 80.0008Z" fill="#A7255B"/>
<path d="M362.031 92.1002C361.929 92.0948 361.827 92.0566 361.745 91.9841L359.412 89.9494C359.215 89.7772 359.195 89.4779 359.366 89.2807C359.539 89.0836 359.838 89.0633 360.035 89.2348L362.367 91.2695C362.565 91.4417 362.585 91.741 362.413 91.9381C362.313 92.0527 362.171 92.1072 362.031 92.1002Z" fill="#A7255B"/>
<path d="M353.056 96.73C352.996 96.6871 352.945 96.6295 352.909 96.5593C352.791 96.3263 352.883 96.0411 353.117 95.9226L355.877 94.5215C356.11 94.403 356.396 94.4957 356.514 94.7295C356.633 94.9625 356.54 95.2478 356.306 95.3662L353.546 96.7674C353.383 96.85 353.195 96.8297 353.056 96.73Z" fill="#A7255B"/>
<path d="M395.783 88.7376C395.681 88.7321 395.58 88.6939 395.497 88.6215L393.165 86.5867C392.967 86.4145 392.947 86.1152 393.119 85.9181C393.291 85.7209 393.59 85.7006 393.787 85.8721L396.12 87.9068C396.317 88.0791 396.337 88.3783 396.165 88.5755C396.066 88.69 395.923 88.7454 395.783 88.7376Z" fill="#A7255B"/>
<path d="M395.242 99.0227C395.14 99.0173 395.039 98.9791 394.956 98.9066L392.624 96.8719C392.427 96.6996 392.406 96.4004 392.578 96.2032C392.75 96.0061 393.049 95.9858 393.246 96.1572L395.579 98.192C395.776 98.3642 395.796 98.6635 395.625 98.8606C395.525 98.9752 395.382 99.0305 395.242 99.0227Z" fill="#A7255B"/>
<path d="M410.198 85.7138C410.113 85.7092 410.029 85.6819 409.954 85.6305C409.739 85.4816 409.685 85.1863 409.834 84.9712L411.595 82.426C411.744 82.2109 412.039 82.1571 412.254 82.306C412.469 82.4548 412.523 82.7502 412.374 82.9653L410.613 85.5105C410.515 85.6499 410.356 85.7216 410.198 85.7138Z" fill="#A7255B"/>
<path d="M401.863 95.5541C401.778 95.5494 401.694 95.5221 401.619 95.4707C401.404 95.3218 401.35 95.0265 401.499 94.8114L403.26 92.2662C403.409 92.0511 403.705 91.9973 403.92 92.1462C404.135 92.295 404.189 92.5904 404.04 92.8055L402.279 95.3507C402.181 95.4909 402.022 95.5626 401.863 95.5541Z" fill="#A7255B"/>
<path d="M418.227 100.777C418.142 100.772 418.058 100.745 417.982 100.693C417.767 100.545 417.713 100.249 417.862 100.034L419.623 97.489C419.772 97.2739 420.067 97.2201 420.283 97.369C420.498 97.5178 420.551 97.8132 420.403 98.0283L418.641 100.573C418.545 100.714 418.386 100.785 418.227 100.777Z" fill="#A7255B"/>
<path d="M406.007 82.8297C406.032 82.9107 406.036 82.9995 406.014 83.0876C405.949 83.3409 405.69 83.4936 405.437 83.4289L402.439 82.6582C402.186 82.5928 402.033 82.3348 402.098 82.0815C402.163 81.8283 402.421 81.6755 402.674 81.741L405.672 82.5117C405.838 82.5538 405.961 82.6785 406.007 82.8297Z" fill="#A7255B"/>
<path d="M415.945 92.9754C415.843 92.9699 415.742 92.9317 415.659 92.8592L413.327 90.8245C413.129 90.6523 413.109 90.353 413.281 90.1559C413.454 89.9587 413.753 89.9384 413.95 90.1099L416.282 92.1446C416.48 92.3169 416.5 92.6161 416.328 92.8133C416.228 92.9278 416.085 92.9824 415.945 92.9754Z" fill="#A7255B"/>
<path d="M406.867 99.5597C406.807 99.5168 406.756 99.4592 406.72 99.389C406.602 99.156 406.695 98.8708 406.929 98.7524L409.689 97.3512C409.922 97.2327 410.207 97.3255 410.325 97.5592C410.444 97.7923 410.351 98.0775 410.117 98.1959L407.357 99.5971C407.195 99.6797 407.006 99.6587 406.867 99.5597Z" fill="#A7255B"/>
<path d="M377.68 89.5792C377.595 89.5745 377.511 89.5473 377.436 89.4958C377.221 89.347 377.167 89.0516 377.316 88.8365L379.077 86.2914C379.226 86.0763 379.521 86.0225 379.736 86.1713C379.951 86.3202 380.005 86.6155 379.856 86.8306L378.095 89.3758C377.998 89.5161 377.839 89.5878 377.68 89.5792Z" fill="#A7255B"/>
<path d="M369.733 97.4516C369.648 97.447 369.563 97.4197 369.489 97.3683C369.274 97.2194 369.22 96.9241 369.369 96.709L371.13 94.1638C371.279 93.9487 371.574 93.8949 371.789 94.0438C372.004 94.1926 372.058 94.488 371.909 94.7031L370.148 97.2482C370.05 97.3885 369.891 97.4602 369.733 97.4516Z" fill="#A7255B"/>
<path d="M370.842 87.5685C370.867 87.6496 370.87 87.7384 370.848 87.8265C370.782 88.0798 370.524 88.2325 370.271 88.1678L367.273 87.3971C367.02 87.3316 366.867 87.0737 366.933 86.8204C366.997 86.5672 367.256 86.4144 367.509 86.4799L370.507 87.2506C370.672 87.2927 370.795 87.4174 370.842 87.5685Z" fill="#A7255B"/>
<path d="M388.471 91.2141C388.369 91.2087 388.267 91.1705 388.185 91.098L385.852 89.0633C385.655 88.891 385.635 88.5918 385.806 88.3946C385.979 88.1975 386.278 88.1772 386.475 88.3487L388.807 90.3834C389.005 90.5556 389.025 90.8549 388.853 91.052C388.754 91.1666 388.611 91.2211 388.471 91.2141Z" fill="#A7255B"/>
<path d="M378.833 98.2013C378.773 98.1584 378.723 98.1008 378.687 98.0306C378.568 97.7976 378.661 97.5124 378.895 97.3939L381.655 95.9928C381.888 95.8743 382.173 95.9671 382.292 96.2009C382.41 96.4339 382.317 96.7191 382.084 96.8375L379.323 98.2387C379.161 98.3213 378.972 98.3011 378.833 98.2013Z" fill="#A7255B"/>
<path d="M351.088 111.483C351.003 111.478 350.919 111.451 350.843 111.4C350.628 111.251 350.574 110.955 350.723 110.74L352.485 108.195C352.633 107.98 352.929 107.926 353.144 108.075C353.359 108.224 353.413 108.519 353.264 108.734L351.503 111.279C351.406 111.42 351.246 111.491 351.088 111.483Z" fill="#A7255B"/>
<path d="M365.067 110.858C364.965 110.852 364.864 110.814 364.781 110.742L362.449 108.707C362.251 108.535 362.231 108.236 362.403 108.038C362.576 107.841 362.875 107.821 363.072 107.992L365.404 110.027C365.602 110.199 365.622 110.499 365.45 110.696C365.35 110.81 365.207 110.866 365.067 110.858Z" fill="#A7255B"/>
<path d="M356.092 115.489C356.032 115.446 355.981 115.388 355.945 115.318C355.827 115.085 355.92 114.8 356.153 114.681L358.914 113.28C359.147 113.162 359.432 113.254 359.55 113.488C359.669 113.721 359.576 114.006 359.342 114.125L356.582 115.526C356.419 115.609 356.231 115.588 356.092 115.489Z" fill="#A7255B"/>
<path d="M398.819 107.496C398.717 107.491 398.616 107.452 398.533 107.38L396.201 105.345C396.003 105.173 395.983 104.874 396.155 104.676C396.328 104.479 396.627 104.459 396.824 104.631L399.156 106.665C399.354 106.837 399.374 107.137 399.202 107.334C399.102 107.448 398.959 107.503 398.819 107.496Z" fill="#A7255B"/>
<path d="M398.278 117.781C398.176 117.776 398.075 117.738 397.992 117.665L395.66 115.63C395.463 115.458 395.442 115.159 395.614 114.962C395.786 114.764 396.085 114.744 396.283 114.916L398.615 116.951C398.812 117.123 398.832 117.423 398.66 117.62C398.561 117.734 398.419 117.788 398.278 117.781Z" fill="#A7255B"/>
<path d="M362.687 121.095C362.585 121.089 362.484 121.051 362.401 120.979L360.069 118.944C359.871 118.772 359.851 118.472 360.023 118.275C360.195 118.078 360.494 118.058 360.691 118.229L363.024 120.264C363.221 120.436 363.241 120.735 363.07 120.933C362.969 121.047 362.827 121.102 362.687 121.095Z" fill="#A7255B"/>
<path d="M404.899 114.312C404.814 114.308 404.73 114.281 404.655 114.229C404.44 114.08 404.386 113.785 404.535 113.57L406.297 111.025C406.445 110.81 406.741 110.756 406.956 110.905C407.171 111.053 407.225 111.349 407.076 111.564L405.315 114.109C405.217 114.249 405.058 114.321 404.899 114.312Z" fill="#A7255B"/>
<path d="M380.716 108.338C380.631 108.333 380.547 108.306 380.472 108.254C380.257 108.105 380.203 107.81 380.352 107.595L382.113 105.05C382.262 104.835 382.557 104.781 382.773 104.93C382.988 105.079 383.041 105.374 382.893 105.589L381.131 108.134C381.034 108.274 380.875 108.345 380.716 108.338Z" fill="#A7255B"/>
<path d="M372.769 116.21C372.684 116.205 372.6 116.178 372.525 116.127C372.31 115.978 372.256 115.682 372.405 115.467L374.166 112.922C374.315 112.707 374.61 112.653 374.825 112.802C375.04 112.951 375.094 113.246 374.945 113.461L373.184 116.007C373.087 116.147 372.927 116.218 372.769 116.21Z" fill="#A7255B"/>
<path d="M358.999 104.389C358.914 104.384 358.83 104.357 358.755 104.306C358.54 104.157 358.487 103.861 358.635 103.646L360.397 101.101C360.546 100.886 360.841 100.832 361.056 100.981C361.271 101.13 361.325 101.425 361.176 101.64L359.415 104.186C359.317 104.326 359.158 104.397 358.999 104.389Z" fill="#A7255B"/>
<path d="M373.878 106.327C373.903 106.408 373.907 106.497 373.884 106.585C373.818 106.838 373.561 106.991 373.307 106.925L370.309 106.155C370.056 106.089 369.903 105.831 369.969 105.578C370.034 105.325 370.292 105.172 370.545 105.237L373.543 106.007C373.709 106.05 373.831 106.175 373.878 106.327Z" fill="#A7255B"/>
<path d="M391.507 109.973C391.405 109.967 391.304 109.929 391.221 109.856L388.889 107.822C388.691 107.649 388.671 107.35 388.843 107.153C389.015 106.956 389.314 106.936 389.511 107.107L391.844 109.142C392.041 109.314 392.061 109.613 391.889 109.81C391.79 109.925 391.647 109.98 391.507 109.973Z" fill="#A7255B"/>
<path d="M381.869 116.96C381.809 116.917 381.759 116.859 381.723 116.789C381.604 116.556 381.697 116.271 381.931 116.152L384.691 114.751C384.924 114.633 385.209 114.726 385.328 114.959C385.446 115.192 385.354 115.478 385.12 115.596L382.36 116.997C382.197 117.08 382.008 117.06 381.869 116.96Z" fill="#A7255B"/>
<path d="M351.088 130.49C351.003 130.485 350.919 130.458 350.843 130.407C350.628 130.258 350.574 129.962 350.723 129.747L352.485 127.202C352.633 126.987 352.929 126.933 353.144 127.082C353.359 127.231 353.413 127.526 353.264 127.741L351.503 130.287C351.406 130.426 351.246 130.498 351.088 130.49Z" fill="#A7255B"/>
<path d="M365.067 129.865C364.965 129.859 364.864 129.821 364.781 129.749L362.449 127.714C362.251 127.542 362.231 127.243 362.403 127.045C362.576 126.848 362.875 126.828 363.072 126.999L365.404 129.034C365.602 129.206 365.622 129.506 365.45 129.703C365.35 129.817 365.207 129.872 365.067 129.865Z" fill="#A7255B"/>
<path d="M356.092 134.495C356.032 134.452 355.981 134.394 355.945 134.324C355.827 134.091 355.92 133.806 356.153 133.687L358.914 132.286C359.147 132.168 359.432 132.261 359.55 132.494C359.669 132.727 359.576 133.013 359.342 133.131L356.582 134.532C356.419 134.615 356.231 134.595 356.092 134.495Z" fill="#A7255B"/>
<path d="M398.819 126.502C398.717 126.497 398.616 126.459 398.533 126.386L396.201 124.351C396.003 124.179 395.983 123.88 396.155 123.683C396.328 123.486 396.627 123.465 396.824 123.637L399.156 125.672C399.354 125.844 399.374 126.143 399.202 126.34C399.102 126.455 398.959 126.51 398.819 126.502Z" fill="#A7255B"/>
<path d="M398.278 136.787C398.176 136.782 398.075 136.744 397.992 136.671L395.66 134.637C395.463 134.464 395.442 134.165 395.614 133.968C395.786 133.771 396.085 133.751 396.283 133.922L398.615 135.957C398.812 136.129 398.832 136.428 398.66 136.625C398.561 136.74 398.419 136.795 398.278 136.787Z" fill="#A7255B"/>
<path d="M404.899 133.319C404.814 133.314 404.73 133.287 404.655 133.235C404.44 133.087 404.386 132.791 404.535 132.576L406.297 130.031C406.445 129.816 406.741 129.762 406.956 129.911C407.171 130.06 407.225 130.355 407.076 130.57L405.315 133.115C405.217 133.256 405.058 133.327 404.899 133.319Z" fill="#A7255B"/>
<path d="M380.716 127.344C380.631 127.339 380.547 127.312 380.472 127.261C380.257 127.112 380.203 126.816 380.352 126.601L382.113 124.056C382.262 123.841 382.557 123.787 382.773 123.936C382.988 124.085 383.041 124.38 382.893 124.595L381.131 127.141C381.034 127.281 380.875 127.353 380.716 127.344Z" fill="#A7255B"/>
<path d="M372.769 135.216C372.684 135.212 372.6 135.184 372.525 135.133C372.31 134.984 372.256 134.689 372.405 134.474L374.166 131.929C374.315 131.713 374.61 131.66 374.825 131.809C375.04 131.957 375.094 132.253 374.945 132.468L373.184 135.013C373.087 135.153 372.927 135.225 372.769 135.216Z" fill="#A7255B"/>
<path d="M373.878 125.333C373.903 125.414 373.907 125.503 373.884 125.591C373.818 125.845 373.561 125.997 373.307 125.932L370.309 125.161C370.056 125.096 369.903 124.838 369.969 124.584C370.034 124.331 370.292 124.178 370.545 124.244L373.543 125.015C373.709 125.057 373.831 125.181 373.878 125.333Z" fill="#A7255B"/>
<path d="M391.507 128.979C391.405 128.973 391.304 128.935 391.221 128.863L388.889 126.828C388.691 126.656 388.671 126.357 388.843 126.159C389.015 125.962 389.314 125.942 389.511 126.113L391.844 128.148C392.041 128.32 392.061 128.62 391.889 128.817C391.79 128.931 391.647 128.986 391.507 128.979Z" fill="#A7255B"/>
<path d="M408.81 122.586C408.708 122.58 408.606 122.542 408.524 122.469L406.191 120.435C405.994 120.263 405.974 119.963 406.145 119.766C406.317 119.569 406.617 119.549 406.814 119.72L409.146 121.755C409.343 121.927 409.364 122.226 409.191 122.423C409.092 122.538 408.951 122.593 408.81 122.586Z" fill="#A7255B"/>
<path d="M381.869 135.966C381.809 135.923 381.759 135.866 381.723 135.795C381.604 135.562 381.697 135.277 381.931 135.159L384.691 133.758C384.924 133.639 385.209 133.732 385.328 133.966C385.446 134.199 385.354 134.484 385.12 134.602L382.36 136.003C382.197 136.086 382.008 136.066 381.869 135.966Z" fill="#A7255B"/>
<path d="M362.27 137.875C362.21 137.832 362.159 137.774 362.124 137.704C362.005 137.471 362.098 137.186 362.332 137.067L365.092 135.666C365.325 135.548 365.61 135.64 365.729 135.874C365.847 136.107 365.754 136.392 365.52 136.511L362.76 137.912C362.597 137.995 362.409 137.973 362.27 137.875Z" fill="#A7255B"/>
<path d="M351.088 149.496C351.003 149.492 350.919 149.464 350.843 149.413C350.628 149.264 350.574 148.969 350.723 148.754L352.485 146.208C352.633 145.993 352.929 145.939 353.144 146.088C353.359 146.237 353.413 146.533 353.264 146.748L351.503 149.293C351.406 149.433 351.246 149.505 351.088 149.496Z" fill="#A7255B"/>
<path d="M365.067 148.871C364.965 148.866 364.864 148.828 364.781 148.755L362.449 146.72C362.251 146.548 362.231 146.249 362.403 146.052C362.576 145.855 362.875 145.834 363.072 146.006L365.404 148.04C365.602 148.213 365.622 148.512 365.45 148.709C365.35 148.824 365.207 148.878 365.067 148.871Z" fill="#A7255B"/>
<path d="M356.092 153.501C356.032 153.458 355.981 153.4 355.945 153.33C355.827 153.097 355.92 152.812 356.153 152.694L358.914 151.292C359.147 151.174 359.432 151.267 359.55 151.501C359.669 151.734 359.576 152.019 359.342 152.137L356.582 153.538C356.419 153.621 356.231 153.601 356.092 153.501Z" fill="#A7255B"/>
<path d="M398.819 145.509C398.717 145.503 398.616 145.465 398.533 145.392L396.201 143.358C396.003 143.185 395.983 142.886 396.155 142.689C396.328 142.492 396.627 142.472 396.824 142.644L399.156 144.679C399.354 144.851 399.374 145.15 399.202 145.347C399.102 145.462 398.959 145.516 398.819 145.509Z" fill="#A7255B"/>
<path d="M407.17 141.382C407.068 141.377 406.967 141.339 406.884 141.266L404.552 139.231C404.355 139.059 404.334 138.76 404.506 138.563C404.678 138.366 404.977 138.345 405.174 138.517L407.507 140.551C407.704 140.724 407.724 141.023 407.552 141.22C407.453 141.335 407.31 141.389 407.17 141.382Z" fill="#A7255B"/>
<path d="M398.278 155.794C398.176 155.789 398.075 155.751 397.992 155.678L395.66 153.644C395.463 153.471 395.442 153.172 395.614 152.975C395.786 152.778 396.085 152.758 396.283 152.93L398.615 154.964C398.812 155.137 398.832 155.436 398.66 155.633C398.561 155.747 398.419 155.801 398.278 155.794Z" fill="#A7255B"/>
<path d="M404.899 152.326C404.814 152.321 404.73 152.294 404.655 152.242C404.44 152.094 404.386 151.798 404.535 151.583L406.297 149.038C406.445 148.823 406.741 148.769 406.956 148.918C407.171 149.067 407.225 149.362 407.076 149.577L405.315 152.122C405.217 152.262 405.058 152.334 404.899 152.326Z" fill="#A7255B"/>
<path d="M380.716 146.35C380.631 146.346 380.547 146.318 380.472 146.267C380.257 146.118 380.203 145.823 380.352 145.608L382.113 143.062C382.262 142.847 382.557 142.793 382.773 142.942C382.988 143.091 383.041 143.387 382.893 143.602L381.131 146.147C381.034 146.287 380.875 146.359 380.716 146.35Z" fill="#A7255B"/>
<path d="M372.769 154.223C372.684 154.218 372.6 154.191 372.525 154.139C372.31 153.99 372.256 153.695 372.405 153.48L374.166 150.935C374.315 150.72 374.61 150.666 374.825 150.815C375.04 150.964 375.094 151.259 374.945 151.474L373.184 154.019C373.087 154.16 372.927 154.231 372.769 154.223Z" fill="#A7255B"/>
<path d="M373.878 144.34C373.903 144.421 373.907 144.51 373.884 144.598C373.818 144.852 373.561 145.004 373.307 144.94L370.309 144.169C370.056 144.103 369.903 143.846 369.969 143.592C370.034 143.339 370.292 143.186 370.545 143.252L373.543 144.022C373.709 144.064 373.831 144.188 373.878 144.34Z" fill="#A7255B"/>
<path d="M391.507 147.985C391.405 147.98 391.304 147.941 391.221 147.869L388.889 145.834C388.691 145.662 388.671 145.363 388.843 145.166C389.014 144.968 389.314 144.948 389.511 145.12L391.844 147.154C392.041 147.327 392.061 147.626 391.889 147.823C391.79 147.938 391.647 147.993 391.507 147.985Z" fill="#A7255B"/>
<path d="M366.921 158.777C366.819 158.771 366.718 158.733 366.635 158.661L364.302 156.626C364.105 156.454 364.085 156.155 364.256 155.957C364.429 155.76 364.728 155.74 364.925 155.911L367.258 157.946C367.455 158.118 367.475 158.418 367.304 158.615C367.203 158.729 367.061 158.784 366.921 158.777Z" fill="#A7255B"/>
<path d="M381.869 154.973C381.809 154.93 381.759 154.873 381.723 154.802C381.604 154.569 381.697 154.284 381.931 154.166L384.691 152.765C384.924 152.646 385.209 152.739 385.328 152.973C385.446 153.206 385.354 153.491 385.12 153.609L382.36 155.011C382.197 155.093 382.008 155.072 381.869 154.973Z" fill="#A7255B"/>
<path d="M378.737 71.2369L378.737 71.2447L378.684 71.2393L378.737 71.2369Z" fill="#5848BC"/>
<path d="M341.634 165.011C341.634 165.011 334.316 196.097 332.961 218.62C331.606 241.143 332.961 270.649 332.961 270.649H423.083C423.083 270.649 422.613 231.132 420.487 208.61C418.361 186.087 413.163 163.354 413.163 163.354L341.634 165.011Z" fill="#3B2539"/>
<path d="M389.686 221.852C390.311 221.852 392.918 220.705 392.918 220.705L384.68 190.883L343.283 205.486L350.687 232.176L389.686 221.852Z" fill="#E2C9B3"/>
<path d="M378.683 71.2392H378.628V71.2314L378.683 71.2392Z" fill="#5848BC"/>
<path d="M387.043 74.7218C387.043 74.7218 384.432 79.0462 377.785 78.6971C371.364 78.3596 368.906 73.5467 368.906 73.5467L369.467 70.3671L369.561 69.8325L370.443 64.8256L386.307 66.1044L386.472 68.0355L386.526 68.6675L387.043 74.7218Z" fill="#E38680"/>
<path d="M392.91 81.9335C388.689 86.8158 380.258 83.6253 377.667 79.7561C374.684 83.3323 365.964 85.6211 362.276 80.3227C358.726 75.2222 369.266 71.494 369.266 71.494C370.072 76.296 375.78 78.1227 377.727 78.5926C379.715 78.3277 385.543 77.1096 386.846 72.4183C386.846 72.4183 396.976 77.2335 392.91 81.9335Z" fill="#F2EDFD"/>
<path d="M386.47 68.034C382.711 70.8956 376.827 71.7504 369.465 70.3664L369.56 69.8318L370.442 64.8248L386.306 66.1037L386.47 68.034Z" fill="#3B2539"/>
<path d="M365.166 51.3952C361.351 56.1691 353.875 52.4145 354.742 45.8575C355.529 39.9091 362.15 41.2074 362.15 41.2074L365.166 51.3952Z" fill="#D55B5D"/>
<path d="M361.34 53.7791C361.276 54.9987 360.236 55.9346 359.016 55.8707C357.797 55.8068 356.861 54.7665 356.925 53.5469C356.989 52.328 358.029 51.3913 359.249 51.4552C360.467 51.5199 361.404 52.5603 361.34 53.7791Z" fill="#EAA940"/>
<path d="M361.887 51.35C361.674 51.3391 361.487 51.1832 361.446 50.9642C360.901 48.1019 358.106 45.3089 358.077 45.2808C357.891 45.0961 357.889 44.7961 358.073 44.6091C358.257 44.4228 358.558 44.4205 358.744 44.6052C358.868 44.7275 361.778 47.6304 362.378 50.7866C362.427 51.0445 362.258 51.2931 362 51.3422C361.963 51.3492 361.925 51.3516 361.887 51.35Z" fill="#B33A41"/>
<path d="M360.806 48.6006C360.756 48.5983 360.705 48.5874 360.657 48.5679C359.38 48.0645 358.126 48.2632 358.113 48.2655C357.854 48.3084 357.61 48.1338 357.567 47.8759C357.524 47.6172 357.697 47.3732 357.955 47.3296C358.016 47.3195 359.475 47.0818 361.005 47.6849C361.249 47.7808 361.369 48.0567 361.273 48.3006C361.195 48.4954 361.004 48.6115 360.806 48.6006Z" fill="#B33A41"/>
<path d="M391.48 52.7793C394.772 57.9265 402.602 54.9769 402.427 48.3653C402.268 42.3679 395.547 42.964 395.547 42.964L391.48 52.7793Z" fill="#D55B5D"/>
<path d="M399.648 55.7936C399.584 57.0132 398.543 57.9492 397.324 57.8853C396.104 57.8214 395.168 56.781 395.232 55.5614C395.296 54.3426 396.336 53.4059 397.556 53.4698C398.775 53.5337 399.712 54.574 399.648 55.7936Z" fill="#EAA940"/>
<path d="M394.745 53.0778C394.707 53.0762 394.67 53.0692 394.633 53.0583C394.382 52.9827 394.239 52.7177 394.316 52.466C395.244 49.3901 398.442 46.8083 398.577 46.7C398.782 46.5363 399.081 46.5698 399.245 46.7748C399.408 46.9798 399.375 47.2782 399.171 47.4419C399.139 47.4668 396.067 49.9512 395.225 52.7403C395.16 52.9538 394.958 53.0887 394.745 53.0778Z" fill="#B33A41"/>
<path d="M396.109 50.4569C395.91 50.4468 395.732 50.3112 395.676 50.1094C395.606 49.8569 395.754 49.595 396.007 49.5249C397.592 49.0854 399.018 49.4742 399.077 49.4914C399.33 49.5623 399.477 49.8241 399.406 50.0766C399.335 50.3291 399.074 50.4764 398.822 50.4063C398.809 50.4032 397.582 50.0743 396.26 50.4406C396.21 50.4538 396.159 50.4593 396.109 50.4569Z" fill="#B33A41"/>
<path d="M361.116 33.8805C361.116 33.8805 358.814 44.5522 362.759 55.3158C366.335 65.0711 371.603 68.3301 377.369 68.7244C383.927 69.1725 397.872 66.099 397.334 34.839C396.971 13.717 363.97 12.7265 361.116 33.8805Z" fill="#E38680"/>
<path d="M359.925 38.589C359.925 38.589 359.919 45.2738 362.698 45.1686C365.478 45.0634 364.923 29.9754 364.923 29.9754C364.923 29.9754 367.197 33.741 371.716 33.582C376.235 33.423 372.462 27.3601 372.462 27.3601C372.462 27.3601 376.31 33.3482 380.121 33.3108C383.93 33.2734 380.507 25.9605 380.507 25.9605C380.507 25.9605 385.043 34.2834 388.624 34.2335C392.205 34.1836 389.536 27.3071 389.536 27.3071C389.536 27.3071 391.985 34.8873 394.668 35.5817C394.668 35.5817 393.41 46.4919 396.334 46.184C399.258 45.8762 398.828 33.5812 397.832 29.804C396.835 26.0267 390.937 16.3642 378.577 16.9027C366.216 17.4412 360.913 23.978 359.925 38.589Z" fill="#4F1E4A"/>
<path d="M366.96 39.6551C366.96 39.6551 369.659 36.2885 374.015 36.0633C374.724 36.0267 375.316 36.5995 375.322 37.3086V37.3203C375.327 38.038 374.73 38.6116 374.013 38.5843C372.384 38.5212 369.515 38.6023 366.96 39.6551Z" fill="#4F1E4A"/>
<path d="M391.27 40.9331C391.27 40.9331 388.939 37.3024 384.63 36.6213C383.929 36.5106 383.28 37.0179 383.2 37.7232L383.199 37.7349C383.118 38.4479 383.651 39.0815 384.368 39.129C385.993 39.2374 388.839 39.6184 391.27 40.9331Z" fill="#4F1E4A"/>
<path d="M378.479 63.1789C377.126 63.108 376.084 62.5796 376.014 62.5438C375.82 62.4433 375.744 62.2048 375.845 62.01C375.945 61.8159 376.184 61.7396 376.378 61.8401C376.411 61.8572 378.789 63.048 380.807 61.8666C380.996 61.7559 381.238 61.8198 381.349 62.0076C381.459 62.1962 381.395 62.4386 381.207 62.5493C380.284 63.0901 379.321 63.2233 378.479 63.1789Z" fill="#D55B5D"/>
<path d="M380.408 53.1805C380.398 53.1797 380.387 53.1789 380.376 53.1774L377.498 52.7924C377.281 52.7636 377.129 52.5641 377.158 52.3474C377.187 52.1308 377.386 51.9819 377.603 52.0077L380.01 52.3295L379.642 44.9433C379.631 44.7251 379.799 44.5397 380.017 44.528C380.236 44.5171 380.421 44.6854 380.433 44.9036L380.824 52.7644C380.83 52.882 380.784 52.9958 380.697 53.0753C380.618 53.1486 380.514 53.186 380.408 53.1805Z" fill="#D55B5D"/>
<path d="M372.641 55.9323C376.166 56.6734 379.775 57.1043 384.666 56.3951C384.666 56.3951 383.975 61.5479 378.225 61.2681C373.334 61.0312 372.641 55.9323 372.641 55.9323Z" fill="#F2EDFD"/>
<path d="M372.953 44.5522C372.881 45.923 372.2 47.0008 371.431 46.9602C370.663 46.9197 370.099 45.7757 370.17 44.4057C370.243 43.0349 370.924 41.9572 371.692 41.9977C372.461 42.0382 373.026 43.1814 372.953 44.5522Z" fill="#3B2539"/>
<path d="M387.752 45.3299C387.68 46.7007 386.999 47.7785 386.23 47.738C385.462 47.6974 384.898 46.5534 384.969 45.1834C385.041 43.8127 385.723 42.7349 386.491 42.7746C387.26 42.8159 387.824 43.9599 387.752 45.3299Z" fill="#3B2539"/>
<path d="M367.601 49.3744C367.589 49.6097 367.388 49.7913 367.152 49.7789C366.917 49.7664 366.735 49.5653 366.748 49.33C366.76 49.0939 366.961 48.9131 367.197 48.9255C367.433 48.9372 367.614 49.1383 367.601 49.3744Z" fill="#D55B5D"/>
<path d="M369.631 50.5137C369.618 50.749 369.417 50.9306 369.182 50.9181C368.946 50.9057 368.765 50.7046 368.777 50.4693C368.79 50.2332 368.991 50.0523 369.226 50.0648C369.462 50.0765 369.643 50.2776 369.631 50.5137Z" fill="#D55B5D"/>
<path d="M367.469 51.8876C367.456 52.1229 367.255 52.3045 367.02 52.292C366.784 52.2796 366.603 52.0785 366.615 51.8432C366.628 51.6078 366.829 51.4262 367.064 51.4387C367.3 51.4504 367.481 51.6515 367.469 51.8876Z" fill="#D55B5D"/>
<path d="M370.721 52.4869C370.709 52.7223 370.508 52.9039 370.273 52.8914C370.037 52.8789 369.856 52.6779 369.868 52.4425C369.881 52.2072 370.082 52.0256 370.317 52.0381C370.553 52.0498 370.734 52.2508 370.721 52.4869Z" fill="#D55B5D"/>
<path d="M372.927 52.1744C372.914 52.4098 372.713 52.5914 372.478 52.5789C372.243 52.5664 372.061 52.3654 372.074 52.13C372.086 51.8947 372.287 51.7131 372.522 51.7256C372.759 51.738 372.939 51.9391 372.927 52.1744Z" fill="#D55B5D"/>
<path d="M372.044 50.0353C372.031 50.2714 371.83 50.4522 371.595 50.4398C371.36 50.4273 371.178 50.2262 371.191 49.9909C371.203 49.7555 371.404 49.574 371.639 49.5864C371.876 49.5989 372.056 49.8 372.044 50.0353Z" fill="#D55B5D"/>
<path d="M390.621 50.5847C390.608 50.8201 390.789 51.0212 391.025 51.0336C391.261 51.0461 391.462 50.8653 391.474 50.6292C391.487 50.393 391.306 50.192 391.07 50.1803C390.834 50.1678 390.633 50.3486 390.621 50.5847Z" fill="#D55B5D"/>
<path d="M388.483 51.5052C388.471 51.7405 388.652 51.9423 388.888 51.954C389.124 51.9665 389.325 51.7857 389.337 51.5496C389.349 51.3134 389.168 51.1124 388.932 51.1007C388.697 51.0882 388.496 51.269 388.483 51.5052Z" fill="#D55B5D"/>
<path d="M390.488 53.0979C390.476 53.3333 390.657 53.5351 390.893 53.5468C391.128 53.5593 391.329 53.3785 391.342 53.1424C391.354 52.907 391.173 52.7052 390.937 52.6935C390.702 52.681 390.501 52.8626 390.488 53.0979Z" fill="#D55B5D"/>
<path d="M387.191 53.3528C387.179 53.5882 387.359 53.7892 387.595 53.8017C387.831 53.8142 388.032 53.6334 388.044 53.3972C388.057 53.1619 387.876 52.9608 387.64 52.9484C387.404 52.9359 387.203 53.1167 387.191 53.3528Z" fill="#D55B5D"/>
<path d="M385.03 52.8112C385.018 53.0465 385.199 53.2476 385.435 53.2601C385.67 53.2725 385.871 53.0917 385.884 52.8556C385.896 52.6195 385.715 52.4184 385.479 52.4067C385.244 52.3943 385.043 52.5751 385.03 52.8112Z" fill="#D55B5D"/>
<path d="M386.133 50.7764C386.12 51.0125 386.301 51.2136 386.537 51.2253C386.773 51.2377 386.974 51.0569 386.986 50.8208C386.999 50.5855 386.818 50.3844 386.582 50.3719C386.346 50.3595 386.145 50.5403 386.133 50.7764Z" fill="#D55B5D"/>
<path d="M370.578 52.5781C366.735 52.3763 363.773 49.0853 363.975 45.2426C364.177 41.3999 367.468 38.4378 371.311 38.6396C375.153 38.8415 378.115 42.1324 377.914 45.9751C377.712 49.8178 374.421 52.78 370.578 52.5781ZM371.278 39.2716C367.784 39.0877 364.792 41.781 364.608 45.2753C364.424 48.7697 367.117 51.7614 370.612 51.9453C374.106 52.1293 377.098 49.436 377.282 45.9416C377.465 42.448 374.771 39.4555 371.278 39.2716Z" fill="#F2EDFD"/>
<path d="M387.356 53.4603C383.514 53.2585 380.552 49.9675 380.753 46.1248C380.955 42.2821 384.246 39.32 388.089 39.5218C391.932 39.7237 394.894 43.0146 394.692 46.8573C394.489 50.7008 391.199 53.6622 387.356 53.4603ZM388.055 40.1546C384.561 39.9707 381.569 42.6639 381.385 46.1583C381.201 49.6527 383.895 52.6444 387.389 52.8283C390.883 53.0122 393.875 50.319 394.059 46.8246C394.243 43.3302 391.55 40.3377 388.055 40.1546Z" fill="#F2EDFD"/>
<path d="M394.083 44.8764C394.008 44.8725 393.933 44.8413 393.875 44.7829C393.752 44.6582 393.754 44.4579 393.878 44.3348C393.969 44.2444 396.146 42.1333 399.205 42.8027C399.375 42.8401 399.484 43.0084 399.446 43.1799C399.409 43.3505 399.241 43.4581 399.069 43.4214C396.342 42.8245 394.343 44.7657 394.322 44.7852C394.256 44.8499 394.169 44.8803 394.083 44.8764Z" fill="#F2EDFD"/>
<path d="M364.844 43.2087C364.761 43.2048 364.681 43.1681 364.623 43.1011C364.588 43.0629 362.231 40.4398 359.102 41.3079C358.934 41.3547 358.759 41.2565 358.713 41.0874C358.666 40.9191 358.765 40.7445 358.933 40.6978C362.459 39.7197 364.993 42.5634 365.1 42.685C365.215 42.8167 365.201 43.0162 365.069 43.1315C365.005 43.1876 364.924 43.2133 364.844 43.2087Z" fill="#F2EDFD"/>
<path d="M377.631 45.3205C377.624 45.3205 377.617 45.3197 377.61 45.3189C377.437 45.2986 377.313 45.1412 377.333 44.9674C377.398 44.4157 377.928 43.3925 379.468 43.4735C381.008 43.5546 381.429 44.6269 381.436 45.1825C381.438 45.3571 381.298 45.5005 381.123 45.5028C380.947 45.5044 380.805 45.3649 380.803 45.1903C380.8 45.089 380.735 44.1741 379.436 44.1056C378.096 44.0354 377.967 44.9994 377.962 45.0407C377.942 45.2075 377.797 45.329 377.631 45.3205Z" fill="#F2EDFD"/>
<path d="M353.19 233.623L392.397 224.134L383.116 194.116L345.786 206.616L353.19 233.623Z" fill="#F7E6D4"/>
<path d="M332.961 127.067L341.798 166.696L356.422 209.653L369.642 205.486L356.566 155.74L350.312 122.572L332.961 127.067Z" fill="#E38680"/>
<path d="M339.812 79.3922C339.812 79.3922 346.178 87.6044 350.245 102.643C351.991 109.102 352.58 115.383 352.685 120.448C352.816 126.833 340.29 128.736 340.29 128.736C333.297 129.736 326.586 127.54 325.716 120.529C325.101 115.577 324.816 109.539 325.558 103.11C327.434 86.8438 339.812 79.3922 339.812 79.3922Z" fill="#BF3E3D"/>
<path d="M369.642 205.486L355.926 207.337L357.452 226.089L358.796 232.14C359.006 233.083 359.926 233.688 360.874 233.508C361.774 233.336 362.398 232.513 362.321 231.601L361.814 225.626L362.434 225.56L363.945 232.137C364.165 233.098 365.081 233.735 366.059 233.607C367.098 233.472 367.834 232.527 367.713 231.488L367.079 226.035L368.48 232.138C368.701 233.099 369.616 233.736 370.594 233.608C371.633 233.472 372.37 232.528 372.249 231.488L371.449 224.604L371.493 224.599L372.837 231.052C373.021 231.938 373.892 232.504 374.777 232.313C375.527 232.151 376.062 231.487 376.062 230.72V224.114L369.642 205.486Z" fill="#E38680"/>
<path d="M411.118 80.7116C411.118 80.7116 408.362 109.839 413.796 124.229C413.796 124.229 424.2 120.163 428.163 116.941C432.125 113.72 433.794 109.341 431.5 101.624C429.205 93.9082 418.682 80.6532 411.118 80.7116Z" fill="#BF3E3D"/>
<path d="M307.675 59.3573C309.434 59.8724 312.289 61.4232 314.623 62.7909L318.141 56.0336L318.135 56.0305C318.315 55.6541 318.715 54.8873 319.247 53.9077L319.248 53.9061C321.027 50.6261 324.289 44.9419 325.741 43.3708C327.627 41.3306 328.681 43.3568 327.898 44.7665C327.294 45.8537 324.218 53.2172 322.843 56.5261L322.972 56.6204C324.56 53.6248 328.363 46.8878 329.964 45.1554C331.85 43.1152 332.905 45.1414 332.122 46.5511C331.446 47.7684 327.672 56.8519 326.656 59.3043L326.754 59.376C328.493 56.1513 331.906 50.1725 333.402 48.5547C335.288 46.5145 336.343 48.5407 335.559 49.9504C335.042 50.8809 332.715 56.4069 331.193 60.0571C333.002 57.3958 335.176 54.3706 336.255 53.3754C338.128 51.6493 338.943 53.5788 338.124 54.8093C337.563 55.6518 334.858 60.873 333.209 64.0799L328.07 74.9012L328.059 84.5247L313.852 81.7185L315.48 75.0952L312.231 68.1119C310.537 66.1988 308.194 63.6162 307.022 62.6163C305.066 60.944 304.298 58.3676 307.675 59.3573Z" fill="#ECB6A0"/>
<path d="M330.062 63.5211C330.007 63.5133 329.953 63.4923 329.905 63.4564L320.183 56.3251C320.026 56.2105 319.992 55.99 320.107 55.8333C320.222 55.6767 320.441 55.6416 320.599 55.7578L330.321 62.8891C330.478 63.0037 330.512 63.2242 330.397 63.3808C330.317 63.4899 330.187 63.539 330.062 63.5211Z" fill="#E48888"/>
<path d="M319.124 68.6029C318.97 68.5803 318.845 68.4579 318.825 68.2958C318.48 65.3711 315.904 63.5834 315.879 63.5663C315.718 63.4572 315.677 63.2382 315.786 63.0777C315.895 62.9171 316.113 62.875 316.274 62.9841C316.391 63.0636 319.14 64.9628 319.523 68.2132C319.546 68.4057 319.408 68.5811 319.215 68.6037C319.184 68.6083 319.153 68.6076 319.124 68.6029Z" fill="#E48888"/>
<path d="M292.208 95.9313L200.655 95.307C200.655 95.307 201.654 83.8927 207.195 81.7177C209.435 80.8402 214.571 78.3277 219.9 75.6446C221.878 74.6487 223.883 73.6293 225.774 72.6614C225.973 72.5594 226.172 72.4573 226.368 72.3567C227.918 71.5611 229.384 70.8091 230.68 70.1389C233.534 68.6652 235.577 67.5983 235.966 67.3957C236.011 67.3724 236.033 67.3615 236.033 67.3615L236.731 67.5228C237.605 67.7254 238.483 67.8999 239.363 68.0449C240.234 68.193 241.108 68.3122 241.983 68.4034C246.813 68.9115 251.705 68.613 256.457 67.5064C256.464 67.5048 256.472 67.5033 256.48 67.5017C256.48 67.5017 258.624 68.6239 261.772 70.2558C263.08 70.9353 264.565 71.7045 266.141 72.5157C266.34 72.617 266.54 72.7207 266.741 72.8235C267.512 73.2194 268.302 73.6247 269.101 74.0338C269.952 74.4702 270.816 74.9128 271.68 75.3508C277.562 78.3456 283.453 81.2735 285.855 82.2546C291.365 84.5044 292.208 95.9313 292.208 95.9313Z" fill="#DD504F"/>
<path d="M266.74 72.8228C266.42 73.7369 266.053 74.6698 265.632 75.601C263.966 79.2785 261.796 82.2048 259.178 84.3011C255.897 86.9281 251.91 88.2436 247.328 88.2124C237.753 88.1469 231.883 82.4962 228.643 77.7698C227.432 76.0031 226.49 74.2287 225.774 72.6615C225.973 72.5594 226.172 72.4573 226.369 72.3568C227.074 73.9029 228.006 75.6595 229.205 77.4098C233.786 84.0844 239.885 87.4946 247.332 87.5453C255.377 87.5999 261.329 83.4883 265.023 75.3267C265.45 74.3838 265.82 73.4385 266.14 72.515C266.339 72.6171 266.539 72.72 266.74 72.8228Z" fill="#A73034"/>
<path d="M261.771 70.2549C260.584 75.2081 256.166 82.726 246.52 82.6598C235.931 82.5873 232.011 73.9925 230.679 70.1396C233.534 68.666 235.576 67.5991 235.965 67.3965C236.01 67.3731 236.032 67.3622 236.032 67.3622L236.73 67.5235C237.605 67.7261 238.483 67.9007 239.363 68.0456C240.234 68.1937 241.108 68.3129 241.983 68.4041C246.813 68.9122 251.704 68.6137 256.457 67.5071C256.464 67.5056 256.471 67.504 256.48 67.5025C256.48 67.5009 258.623 68.6231 261.771 70.2549Z" fill="#FCF6F0"/>
<path d="M256.929 69.8357C256.929 69.8357 255.095 75.4677 246.845 75.4108C237.222 75.3453 234.991 70.1989 234.991 70.1989C235.842 67.988 236.432 65.94 236.831 64.1079H236.834C237.569 60.7522 237.688 58.1127 237.655 56.4941L254.566 55.9401C254.712 57.3724 254.955 59.0596 255.231 60.7577C255.965 65.2651 256.929 69.8357 256.929 69.8357Z" fill="#ECB6A0"/>
<path d="M255.231 60.7576C252.6 62.5609 246.855 65.2339 236.834 64.1086C237.569 60.753 237.688 58.1135 237.655 56.4949L254.566 55.9408C254.713 57.3724 254.956 59.0595 255.231 60.7576Z" fill="#3B2539"/>
<path d="M231.352 34.4026C231.352 34.4026 226.168 27.2456 222.071 31.4327C217.972 35.6199 225.721 50.3525 232.864 47.2034L231.352 34.4026Z" fill="#ECB6A0"/>
<path d="M228.799 42.8012C228.622 42.7996 228.468 42.6679 228.444 42.4871C227.789 37.5347 223.878 34.4705 223.838 34.4401C223.68 34.3185 223.65 34.0917 223.773 33.9335C223.894 33.7753 224.121 33.7457 224.279 33.8681C224.45 33.9998 228.468 37.1474 229.16 42.3928C229.187 42.5908 229.047 42.7723 228.849 42.7988C228.833 42.8004 228.816 42.8012 228.799 42.8012Z" fill="#E48888"/>
<path d="M227.728 39.2405C227.612 39.2397 227.498 39.1828 227.429 39.0791C226.909 38.2991 225.339 38.2094 224.78 38.2398C224.579 38.2531 224.41 38.0988 224.399 37.8985C224.388 37.699 224.541 37.5291 224.74 37.5174C224.84 37.512 227.177 37.3974 228.03 38.6778C228.141 38.8438 228.096 39.0682 227.929 39.1789C227.869 39.221 227.798 39.2405 227.728 39.2405Z" fill="#E48888"/>
<path d="M263.226 34.62C263.226 34.62 268.507 27.5339 272.547 31.7772C276.588 36.0197 268.64 50.6455 261.54 47.399L263.226 34.62Z" fill="#ECB6A0"/>
<path d="M265.664 43.0528C265.648 43.0528 265.63 43.0512 265.614 43.0489C265.416 43.02 265.28 42.8369 265.309 42.639C266.072 37.4029 270.133 34.3106 270.305 34.1812C270.465 34.0612 270.691 34.094 270.811 34.2537C270.93 34.4135 270.898 34.6395 270.739 34.7595C270.699 34.7891 266.743 37.8097 266.023 42.7426C265.997 42.9242 265.842 43.0543 265.664 43.0528Z" fill="#E48888"/>
<path d="M266.784 39.507C266.714 39.5062 266.644 39.486 266.582 39.4439C266.418 39.3309 266.375 39.1057 266.488 38.9413C267.359 37.6726 269.695 37.8198 269.795 37.8261C269.994 37.8401 270.144 38.0123 270.13 38.2111C270.117 38.4106 269.942 38.5625 269.745 38.5469C269.183 38.5095 267.613 38.5797 267.085 39.3504C267.015 39.4525 266.9 39.5078 266.784 39.507Z" fill="#E48888"/>
<path d="M250.781 12.4506C235.869 12.3423 226.556 20.0059 228.099 37.7536C229.021 48.3473 234.377 61.4816 246.936 61.8635C260.025 62.2609 265.375 48.0426 267.318 37.24C269.097 27.3531 264.137 16.3479 254.613 13.1535C253.953 12.933 251.619 12.4568 250.781 12.4506Z" fill="#ECB6A0"/>
<path d="M227.95 34.5156C227.95 34.5156 226.33 17.6906 226.305 13.964C226.243 4.90235 235.42 -0.118661 248.837 0.00213C259.658 0.0995421 260.959 4.84624 261.805 8.6874C261.805 8.6874 269.804 8.9469 270.986 14.5337C272.168 20.1205 266.975 36.9307 266.975 36.9307C266.975 36.9307 265.299 33.0412 264.117 27.4544C262.935 21.8677 261.371 18.4434 257.884 18.3491C254.398 18.2548 250.039 18.3998 245.313 21.1569C240.587 23.9141 235.878 24.2305 232.582 21.7679C232.582 21.7679 231.64 30.1827 227.95 34.5156Z" fill="#4F1E4A"/>
<g opacity="0.5">
<path d="M240.886 41.6205C240.878 42.8853 238.535 43.8953 235.654 43.8758C232.773 43.8563 230.444 42.8144 230.453 41.5496C230.461 40.2848 232.804 39.2748 235.685 39.2951C238.566 39.3146 240.895 40.3557 240.886 41.6205Z" fill="#E48888"/>
</g>
<g opacity="0.5">
<path d="M265.429 41.788C265.42 43.0528 263.077 44.0628 260.196 44.0433C257.315 44.0238 254.987 42.9819 254.995 41.7171C255.004 40.4523 257.347 39.4423 260.228 39.4618C263.109 39.4813 265.437 40.5232 265.429 41.788Z" fill="#E48888"/>
</g>
<path d="M267.437 34.7853C267.437 34.7853 267.268 42.9703 264.759 53.25C260.737 69.7282 247.338 67.4379 247.338 67.4379C247.338 67.4379 234.171 69.5467 230.373 53.0154C228.006 42.7022 227.948 34.5157 227.948 34.5157L230.115 30.9528C230.115 30.9528 231.518 45.1827 236.945 47.6835C236.945 47.6835 239.389 44.0208 247.474 47.5144C255.605 44.1315 258.261 47.8284 258.261 47.8284C263.72 45.4017 265.32 31.192 265.32 31.192L267.437 34.7853Z" fill="#4F1E4A"/>
<path d="M248.088 46.1201C247.466 46.1162 246.785 45.9486 246.036 45.6174C245.826 45.5247 245.703 45.3034 245.734 45.0758L246.835 37.0452C246.874 36.7631 247.135 36.5659 247.417 36.6041C247.699 36.6431 247.897 36.9026 247.858 37.1855L246.81 44.8202C247.834 45.2036 248.627 45.1756 249.285 44.7392C249.522 44.5818 249.842 44.6464 250 44.8834C250.157 45.1203 250.093 45.4405 249.856 45.5987C249.324 45.9502 248.738 46.124 248.088 46.1201Z" fill="#E48888"/>
<path d="M247.09 52.3577C244.136 52.3374 241.902 51.1022 241.863 51.0812C241.616 50.9409 241.529 50.6261 241.669 50.3783C241.811 50.1305 242.125 50.0439 242.372 50.1842C242.622 50.3245 248.311 53.4401 253.284 48.9023C253.494 48.7106 253.82 48.7254 254.013 48.9358C254.204 49.1462 254.19 49.4727 253.979 49.6644C251.673 51.7678 249.198 52.3725 247.09 52.3577Z" fill="#684868"/>
<path d="M247.906 55.3128C246.738 55.305 245.806 55.0135 245.74 54.9925C245.469 54.906 245.319 54.6153 245.406 54.3441C245.492 54.0729 245.782 53.9241 246.053 54.0098C246.076 54.0168 248.359 54.7228 249.974 53.8243C250.223 53.6856 250.537 53.7752 250.675 54.0246C250.814 54.274 250.725 54.588 250.475 54.7259C249.65 55.1857 248.721 55.3182 247.906 55.3128Z" fill="#684868"/>
<path d="M237.171 32.3203C238.286 31.7312 239.912 31.0056 241.49 30.7867C242.338 30.669 242.876 29.8211 242.593 29.013L242.535 28.8501C242.331 28.2664 241.755 27.897 241.14 27.9586C239.733 28.0989 237.237 28.5734 235.6 30.1835C235.246 30.5318 235.12 31.0524 235.266 31.5278C235.513 32.3304 236.429 32.7131 237.171 32.3203Z" fill="#3B2539"/>
<path d="M258.517 32.466C257.41 31.8621 255.794 31.114 254.22 30.8731C253.374 30.7438 252.848 29.8881 253.141 29.0847L253.201 28.9226C253.413 28.342 253.994 27.9804 254.608 28.0505C256.014 28.2095 258.503 28.7192 260.118 30.3502C260.468 30.7033 260.586 31.2262 260.433 31.6992C260.175 32.4988 259.254 32.8689 258.517 32.466Z" fill="#3B2539"/>
<path d="M241.287 36.2877C241.302 37.6858 240.779 38.8235 240.119 38.8306C239.459 38.8376 238.912 37.7107 238.897 36.3126C238.882 34.9154 239.405 33.7768 240.065 33.7698C240.726 33.7636 241.272 34.8904 241.287 36.2877Z" fill="#3B2539"/>
<path d="M253.776 36.3734C253.743 37.7707 254.25 38.9162 254.909 38.9326C255.569 38.9482 256.131 37.8291 256.166 36.4318C256.199 35.0345 255.692 33.889 255.032 33.8726C254.372 33.8562 253.81 34.9761 253.776 36.3734Z" fill="#3B2539"/>
<path d="M200.655 95.3071L204.812 137.243L207.538 199.747H285.118L287.62 134.881L292.208 95.9321C292.208 95.9321 211.706 88.7805 200.655 95.3071Z" fill="#DD504F"/>
<path d="M207.537 199.747L203.618 270.65H245.382L248.062 225.294L253.059 224.668L256.929 270.65H294.919L285.483 190.28L207.018 187.823L207.537 199.747Z" fill="#3B2539"/>
<path d="M230.748 214.555L228.616 209.794C228.219 208.905 227.53 208.179 226.665 207.733L221.118 204.876L215.927 201.335L210.546 197.398L207.658 194.117L199.18 205.179L199.849 205.798C199.849 205.798 199.849 205.798 201.359 208.685C202.868 211.573 206.214 214.657 206.214 214.657L209.964 217.407L212.87 219.777L215.083 222.568C215.743 223.4 216.927 223.592 217.817 223.011C218.194 222.764 218.334 222.278 218.145 221.868L215.916 217.034L217.764 218.398L220.338 221.74C220.937 222.517 222.036 222.696 222.85 222.149C223.399 221.779 223.604 221.067 223.332 220.462L221.226 215.757L222.423 216.614L224.731 219.612C225.479 220.583 226.853 220.807 227.87 220.122C228.211 219.893 228.337 219.451 228.169 219.077L225.277 212.618L227.753 215.834C228.351 216.611 229.451 216.79 230.264 216.242C230.815 215.871 231.019 215.16 230.748 214.555ZM225.071 212.431L225.18 212.491L225.198 212.514L225.071 212.431Z" fill="#ECB6A0"/>
<path d="M194.599 167.943L189.586 161.486L210.04 111.531L207.195 81.7177C207.195 81.7177 192.211 83.0635 184.233 106.421C176.253 129.778 166.6 160.435 166.6 160.435C169.041 187.441 199.18 208.61 199.18 208.61L210.457 194.846L194.599 167.943Z" fill="#DD504F"/>
<path d="M331.502 81.7177L311.168 80.2853C311.168 80.2853 310.644 99.1474 309.291 112.469C304.261 103.126 297.721 94.8964 295.944 91.1978C291.356 81.6467 277.214 78.1438 277.214 78.1438C277.214 78.1438 278.009 104.232 284.265 119.248C287.889 127.944 294.766 139.485 299.911 147.657C308.058 160.596 328.064 157.38 331.309 142.439C331.379 142.117 331.443 141.791 331.502 141.458C334.317 125.503 331.502 81.7177 331.502 81.7177Z" fill="#DD504F"/>
<path d="M180.652 114.083C180.652 114.083 196.697 145.763 203.049 159.788L187.965 171.961L160.974 132.268L180.652 114.083Z" fill="#965450"/>
<path d="M192.464 162.832L168.647 199.747L178.439 212.185C178.439 212.185 205.695 187.045 207.283 178.048C208.87 169.051 202.11 157.757 202.11 157.757L192.464 162.832Z" fill="#965450"/>
<path d="M187.52 228.533L189.993 227.979C190.728 227.815 191.179 227.073 190.985 226.345L190.931 226.138C190.663 225.126 189.767 224.407 188.721 224.362L183.712 224.151C183.712 224.151 183.14 206.324 181.424 204.894C181.366 204.846 181.306 204.826 181.246 204.823L168.587 199.747L167.125 220.718L167.152 220.73H167.125C167.125 220.73 169.508 229.405 170.175 230.644C170.461 231.176 172.625 231.356 175.114 231.389C175.193 231.592 175.265 231.767 175.322 231.873C175.989 233.112 186.857 232.445 188.287 232.445C189.53 232.444 189.976 229.647 187.52 228.533Z" fill="#965450"/>
<path d="M62.6826 114.825L47.759 158.035L66.3998 165.126C66.3998 165.126 88.6441 130.032 89.0976 125.411C89.5512 120.791 83.8631 115.406 83.8631 115.406L62.6826 114.825Z" fill="#76413B"/>
<path d="M95.9336 55.764C95.9336 55.764 90.7451 54.9964 90.3009 59.401C89.8567 63.8056 92.9513 64.5343 92.9513 64.5343C92.9513 64.5343 88.0448 59.7533 85.0874 63.5781C82.1299 67.4029 87.6435 70.0486 87.6435 70.0486C87.6435 70.0486 81.5486 67.2548 80.6992 71.3079C79.8497 75.3618 84.7554 77.4807 84.7554 77.4807C84.7554 77.4807 79.6214 77.4698 79.9736 79.7259C80.3259 81.9819 85.1076 79.7368 85.1076 79.7368C85.1076 79.7368 78.0153 81.5775 79.5583 87.1705C81.1013 92.7635 86.5447 89.1398 86.5447 89.1398C86.5447 89.1398 82.3575 91.7224 84.0088 98.828C85.6602 105.934 116.958 89.0447 116.958 89.0447L116.125 69.5218L95.9336 55.764Z" fill="#352C38"/>
<path d="M133.263 53.0809C133.263 53.0809 138.289 51.5792 139.358 55.8747C140.427 60.171 137.469 61.3337 137.469 61.3337C137.469 61.3337 141.642 55.9004 145.116 59.2631C148.59 62.6258 143.511 66.0328 143.511 66.0328C143.511 66.0328 149.144 62.3959 150.564 66.2869C151.984 70.1772 147.433 72.9764 147.433 72.9764C147.433 72.9764 152.512 72.2314 152.486 74.5147C152.461 76.7981 147.406 75.2597 147.406 75.2597C147.406 75.2597 154.689 76.0671 153.961 81.823C153.234 87.5788 147.329 84.771 147.329 84.771C147.329 84.771 151.843 86.7286 151.225 93.9971C150.607 101.266 117.215 89.0268 117.215 89.0268L115.248 69.5849L133.263 53.0809Z" fill="#352C38"/>
<path d="M95.9336 55.764C95.9336 55.764 90.7451 54.9964 90.3009 59.401C89.8567 63.8056 92.9513 64.5343 92.9513 64.5343C92.9513 64.5343 88.0448 59.7533 85.0874 63.5781C82.1299 67.4029 87.6435 70.0486 87.6435 70.0486C87.6435 70.0486 81.5486 67.2548 80.6992 71.3079C79.8497 75.3618 84.7554 77.4807 84.7554 77.4807C84.7554 77.4807 79.6214 77.4698 79.9736 79.7259C80.3259 81.9819 85.1076 79.7368 85.1076 79.7368C85.1076 79.7368 78.0153 81.5775 79.5583 87.1705C81.1013 92.7635 86.5447 89.1398 86.5447 89.1398C86.5447 89.1398 82.3575 91.7224 84.0088 98.828C85.6602 105.934 116.958 89.0447 116.958 89.0447L116.125 69.5218L95.9336 55.764Z" fill="#352C38"/>
<path d="M133.263 53.0809C133.263 53.0809 138.289 51.5792 139.358 55.8747C140.427 60.171 137.469 61.3337 137.469 61.3337C137.469 61.3337 141.642 55.9004 145.116 59.2631C148.59 62.6258 143.511 66.0328 143.511 66.0328C143.511 66.0328 149.144 62.3959 150.564 66.2869C151.984 70.1772 147.433 72.9764 147.433 72.9764C147.433 72.9764 152.512 72.2314 152.486 74.5147C152.461 76.7981 147.406 75.2597 147.406 75.2597C147.406 75.2597 154.689 76.0671 153.961 81.823C153.234 87.5788 147.329 84.771 147.329 84.771C147.329 84.771 151.843 86.7286 151.225 93.9971C150.607 101.266 117.215 89.0268 117.215 89.0268L115.248 69.5849L133.263 53.0809Z" fill="#352C38"/>
<path d="M128.606 84.4086C123.066 81.8837 123.509 67.7239 123.509 67.7239L115.563 68.8118L115.526 68.299L114.69 68.6169L113.817 68.4221L113.854 68.9349L105.833 68.9941C105.833 68.9941 108.297 82.9451 103.175 86.2361C98.0534 89.5271 66.6571 93.2451 72.3834 125.471L117.682 122.215L119.391 122.092L164.69 118.836C165.75 86.1231 134.146 86.9336 128.606 84.4086Z" fill="#965450"/>
<path d="M105.673 82.4121C111.982 81.0031 118.283 79.5645 124.579 78.0963C123.335 73.3146 123.509 67.7239 123.509 67.7239L115.563 68.8118L115.526 68.299L114.69 68.6169L113.817 68.4221L113.854 68.9349L105.833 68.9941C105.833 68.9941 107.262 77.1004 105.673 82.4121Z" fill="#76413B"/>
<path d="M97.5834 48.907C95.6625 44.1471 92.0247 45.5428 91.6842 45.6854C91.3218 45.754 87.5188 46.6011 88.5475 51.6299C89.5824 56.6883 92.7448 59.2436 95.4645 58.2305C98.2918 57.572 99.5153 53.695 97.5834 48.907Z" fill="#76413B"/>
<path d="M128.945 46.6525C130.166 41.6665 133.966 42.5276 134.323 42.6204C134.69 42.6367 138.576 42.9313 138.277 48.0552C137.976 53.2102 135.212 56.1903 132.374 55.577C129.484 55.3299 127.718 51.668 128.945 46.6525Z" fill="#76413B"/>
<path d="M93.2419 41.799C93.6526 20.2967 109.98 20.3263 111.523 20.3769C113.043 20.1057 129.197 17.7421 132.679 38.9647C136.182 60.3136 127.618 75.0368 115.458 75.135C103.409 76.7762 92.8289 63.4292 93.2419 41.799Z" fill="#965450"/>
<path d="M116.484 50.2318C117.149 51.1631 117.588 52.159 117.96 53.1752C118.32 54.1938 118.6 55.2357 118.762 56.3111L118.81 56.633L118.661 56.7857C118.247 57.2104 117.818 57.6219 117.378 58.0256C116.93 58.4207 116.485 58.8197 115.99 59.1766C116.254 58.6264 116.566 58.1175 116.876 57.6047C117.194 57.1005 117.523 56.6041 117.866 56.1217L117.766 56.5956C117.335 55.5973 117.021 54.5647 116.788 53.5103C116.566 52.452 116.412 51.3743 116.484 50.2318Z" fill="#76413B"/>
<path d="M122.875 62.5392C119.279 66.5759 112.715 66.8378 107.513 63.8453L122.875 62.5392Z" fill="white"/>
<path d="M128.478 42.0889C127.474 41.7062 126.579 41.3524 125.706 41.0867C124.838 40.8178 124.011 40.655 123.221 40.6425C122.432 40.6269 121.655 40.7477 120.855 41.0922C120.432 41.2106 120.049 41.4654 119.607 41.6618C119.175 41.8824 118.777 42.1715 118.261 42.3967C118.407 41.8863 118.618 41.386 118.892 40.916C119.224 40.4976 119.52 40.0043 119.994 39.6793C120.845 38.9273 122.07 38.501 123.257 38.5384C124.449 38.5594 125.565 38.9881 126.456 39.6177C127.339 40.2638 128.08 41.0719 128.478 42.0889Z" fill="#352C38"/>
<path d="M108.248 43.543C107.244 43.1604 106.349 42.8065 105.476 42.5408C104.608 42.2719 103.78 42.1091 102.991 42.0966C102.202 42.081 101.425 42.2018 100.625 42.5463C100.202 42.6647 99.8192 42.9195 99.3773 43.1159C98.9448 43.3365 98.5474 43.6264 98.0315 43.8508C98.1772 43.3404 98.3884 42.8401 98.6627 42.3701C98.9947 41.9517 99.2901 41.4584 99.7639 41.1334C100.615 40.3814 101.841 39.9551 103.027 39.9925C104.219 40.0135 105.335 40.4422 106.227 41.0718C107.11 41.7179 107.849 42.5252 108.248 43.543Z" fill="#352C38"/>
<path d="M108.162 51.3298C107.8 50.4515 107.358 49.6239 106.74 49.034C106.129 48.444 105.357 48.1464 104.527 48.2219C104.106 48.2274 103.709 48.3256 103.35 48.4799C102.996 48.6459 102.706 48.9093 102.464 49.2405C101.993 49.9216 101.793 50.849 101.71 51.7935C101.414 50.8887 101.369 49.839 101.836 48.875C102.064 48.3926 102.468 47.9819 102.942 47.6983C103.431 47.4458 103.963 47.318 104.482 47.2922C105.531 47.1987 106.677 47.7092 107.282 48.5539C107.918 49.3769 108.174 50.3751 108.162 51.3298Z" fill="#352C38"/>
<path d="M126.321 49.7307C125.958 48.8525 125.517 48.0248 124.899 47.4349C124.288 46.845 123.515 46.5473 122.685 46.6229C122.264 46.6283 121.868 46.7265 121.509 46.8808C121.155 47.0468 120.865 47.3102 120.623 47.6414C120.151 48.3225 119.952 49.2499 119.869 50.1944C119.573 49.2896 119.528 48.2399 119.994 47.2767C120.222 46.7943 120.626 46.3836 121.1 46.1C121.59 45.8475 122.121 45.7197 122.64 45.694C123.69 45.6005 124.835 46.1109 125.44 46.9557C126.076 47.777 126.332 48.7753 126.321 49.7307Z" fill="#352C38"/>
<path d="M112.152 20.3317C112.152 20.3317 114.096 33.3545 94.6299 40.2677C94.6299 40.2677 95.6733 46.8472 94.4195 53.211C94.4195 53.211 87.3224 44.4049 89.5598 33.2166C91.7979 22.0282 106.5 12.1381 112.152 20.3317Z" fill="#352C38"/>
<path d="M110.588 20.4439C110.588 20.4439 111.154 33.5657 131.409 37.6243C131.409 37.6243 131.061 46.015 133.212 52.134C133.212 52.134 139.233 40.6737 135.418 29.9209C131.603 19.1674 115.009 11.5264 110.588 20.4439Z" fill="#352C38"/>
<path d="M97.5624 39.105C94.5192 37.2939 91.7535 34.8773 89.8185 32.1302C89.7203 32.4911 89.633 32.8527 89.5598 33.2166C87.3216 44.405 94.4194 53.211 94.4194 53.211C95.6733 46.8465 94.6299 40.2677 94.6299 40.2677C95.6718 39.8975 96.6397 39.5071 97.5624 39.105Z" fill="#2A242D"/>
<path d="M171.645 195.572L158.683 154.525L166.018 118.741C167.15 85.5526 134.557 86.413 128.847 83.8584C126.648 82.875 125.369 80.1381 124.624 77.1464C121.722 78.0168 118.554 78.6099 115.215 78.8499C111.943 79.0853 108.783 78.9637 105.837 78.5382C105.524 81.5907 104.648 84.4616 102.621 85.7444C97.3348 89.0891 64.9551 92.8983 70.8208 125.584L84.1507 156.686C84.1507 156.686 74.789 178.29 74.789 195.572H171.645Z" fill="#FC6A5A"/>
<path d="M74.7888 195.572L79.3391 270.65H171.645V195.572H74.7888Z" fill="#3B2539"/>
<path d="M88.3721 91.3561C88.3721 91.3561 76.6827 94.8434 68.0223 103.602C59.362 112.361 55.718 125.471 55.718 125.471L81.3273 137.242L88.3721 91.3561Z" fill="#FC6A5A"/>
<path d="M147.213 88.5717C147.213 88.5717 159.251 90.5378 168.96 98.1188C178.668 105.701 183.956 118.237 183.956 118.237L160.059 133.182L147.213 88.5717Z" fill="#FC6A5A"/>
<path d="M67.0178 152.574L39.8429 100.04L24.9202 104.304C24.9202 104.304 39.3504 154.861 43.0108 161.977C50.065 175.69 74.552 170.349 67.0178 152.574Z" fill="#965450"/>
<path d="M43.6724 79.146C41.7467 80.3095 38.8438 83.0464 36.5036 85.403L30.2069 78.4859L30.2124 78.4813C29.8811 78.0908 29.165 77.3061 28.2267 76.3102L28.2251 76.3086C25.0822 72.974 19.4269 67.2508 17.2106 65.8419C14.3318 64.0121 13.7154 66.7482 15.0878 68.1758C16.1468 69.277 22.1084 77.0513 24.7791 80.548L24.6552 80.6999C21.8294 77.6427 15.2008 70.8403 12.7561 69.2856C9.87737 67.455 9.26095 70.1919 10.6333 71.6196C11.8186 72.8524 19.1494 82.4494 21.1257 85.0414L21.0314 85.1575C17.9548 81.8759 12.0259 75.8504 9.74334 74.3993C6.86461 72.5687 6.24818 75.3056 7.62053 76.7333C8.52607 77.6755 13.0234 83.5046 15.9754 87.359C12.9922 84.7679 9.46201 81.8595 7.86834 81.0179C5.1034 79.5567 4.74103 82.1027 6.10012 83.3067C7.0306 84.1312 11.8809 89.4795 14.8446 92.7681L24.3403 103.997L27.4365 111.531L42.18 105.471L39.8429 100.039L41.0103 90.9664C42.42 88.1633 44.3909 84.3626 45.4671 82.8079C47.2665 80.2105 47.3701 76.911 43.6724 79.146Z" fill="#965450"/>
<path d="M18.4061 91.1152C18.4692 91.0887 18.5261 91.0466 18.572 90.9898L27.8745 79.4733C28.0249 79.2878 27.9961 79.0159 27.8098 78.8662C27.6244 78.7158 27.3532 78.7439 27.2028 78.9309L17.9003 90.4474C17.7499 90.6328 17.7795 90.9048 17.965 91.0544C18.0936 91.1581 18.2634 91.176 18.4061 91.1152Z" fill="#76413B"/>
<path d="M32.985 93.7141C33.1604 93.6393 33.271 93.4546 33.243 93.2559C32.7349 89.6758 35.2302 86.7457 35.2559 86.7168C35.4118 86.5368 35.3923 86.264 35.2123 86.1082C35.0322 85.9515 34.7603 85.9703 34.6036 86.1503C34.4898 86.2812 31.8223 89.3984 32.3873 93.3775C32.4208 93.6136 32.639 93.7773 32.8759 93.7437C32.9141 93.7391 32.9507 93.7281 32.985 93.7141Z" fill="#76413B"/>
</svg>
